PathFileType	4	(X/Y/Z)	c:/Users/goper/Files/vsCode/490R/osim_files/C05/C05_SSWS_01.trc
DataRate	CameraRate	NumFrames	NumMarkers	Units                	OrigDataRate	OrigDataStartFrame	OrigNumFrames
250.00	250.00	7	36	mm	250.0	2947	3929
                Frame#	Time	LPSIS			LASIS			LTH1			LTH2			LTH3			LTH4			LLFE			LMFE			LSH1			LSH2			LSH3			LSH4			LLMAL			LMMAL			LCAL			LMTP5			LTOE			LMTP1			RPSIS			RASIS			RTH1			RTH2			RTH3			RTH4			RLFE			RMFE			RSH1			RSH2			RSH3			RSH4			RLMAL			RMMAL			RCAL			RMTP1			RTOE			RMTP5		
		X1	Y1	Z1	X2	Y2	Z2	X3	Y3	Z3	X4	Y4	Z4	X5	Y5	Z5	X6	Y6	Z6	X7	Y7	Z7	X8	Y8	Z8	X9	Y9	Z9	X10	Y10	Z10	X11	Y11	Z11	X12	Y12	Z12	X13	Y13	Z13	X14	Y14	Z14	X15	Y15	Z15	X16	Y16	Z16	X17	Y17	Z17	X18	Y18	Z18	X19	Y19	Z19	X20	Y20	Z20	X21	Y21	Z21	X22	Y22	Z22	X23	Y23	Z23	X24	Y24	Z24	X25	Y25	Z25	X26	Y26	Z26	X27	Y27	Z27	X28	Y28	Z28	X29	Y29	Z29	X30	Y30	Z30	X31	Y31	Z31	X32	Y32	Z32	X33	Y33	Z33	X34	Y34	Z34	X35	Y35	Z35	X36	Y36	Z36

2947	11.78400	-2029.05811	1024.93164	293.11334	-2232.63599	996.77759	335.06729	-2216.66431	675.23431	389.32715	-2247.08325	620.87732	381.20468	-2286.50806	706.30328	391.20737	-2308.47168	649.12598	382.55823	-2331.97070	546.21802	362.25043	-2323.70923	534.44971	240.65895	-2322.79321	352.32431	364.49103	-2347.80420	315.92245	360.55524	-2379.79150	378.95956	378.97165	-2394.34229	338.19485	371.18344	-2481.22949	124.03143	329.05142	-2503.23975	155.89796	247.37308	-2448.12012	72.31474	269.26288	-2634.04004	129.90704	357.61945	-2651.67920	179.27336	300.57083	-2650.49561	162.08539	251.80238	-2027.00061	1039.31201	185.58578	-2216.22900	1001.99890	103.69215	-2115.93286	670.83417	70.77604	-2107.51392	609.84900	83.58879	-2039.90930	673.69519	66.41253	-2042.03674	612.82269	80.68852	0.00000	0.00000	0.00000	-2061.35400	518.64636	101.34854	-1938.08679	387.37335	94.31547	-1929.23254	340.27869	102.06886	-1996.06677	367.23825	98.58255	-1978.97522	324.27957	106.28722	-1873.98145	111.71980	158.99065	-1896.26160	122.66360	242.97295	-1805.54358	86.31284	206.50626	-2019.84644	44.20336	233.13194	-2042.08594	64.74141	185.08545	-1990.10144	39.75957	121.67923
2948	11.78800	-2034.03467	1024.08020	293.35715	-2237.68555	995.91077	335.21970	-2222.22388	674.69989	389.94205	-2252.64917	620.31366	381.68115	-2291.94263	705.73914	391.47531	-2312.93262	648.32159	382.15421	-2336.69458	545.29077	362.35205	-2328.81128	534.25580	241.24327	-2327.49902	351.39273	363.92191	-2352.38599	315.11151	360.15927	-2384.49512	378.07446	378.75381	-2399.09912	337.30731	370.85800	-2486.53491	123.21552	328.88586	-2508.07251	155.52214	246.93347	-2453.67896	71.48966	269.12762	-2639.89771	129.79022	356.06454	-2657.47168	179.71648	299.50549	-2655.15137	162.77979	250.33464	-2031.97742	1038.45569	185.85892	-2221.05908	1001.06171	103.82092	-2119.71094	670.10016	70.83120	-2110.98877	609.14001	83.68935	-2043.59412	673.20184	66.50370	-2045.60120	612.35889	80.74285	0.00000	0.00000	0.00000	-2064.46899	518.09113	101.69221	-1940.61584	387.45236	94.39802	-1931.43213	340.45447	102.13441	-1998.07666	367.33646	98.55482	-1981.07996	324.14499	106.47001	-1874.42603	112.22941	158.87715	-1897.41138	122.82563	242.79971	-1805.81091	87.02930	206.35905	-2019.95129	44.14676	233.06169	-2042.21680	64.62414	185.03932	-1990.14941	39.71880	121.67857
2949	11.79200	-2039.15259	1023.13727	293.73077	-2242.80127	995.13995	335.40814	-2227.73584	674.13629	390.42493	-2258.34644	619.85895	381.95163	-2297.52954	705.26355	391.69501	-2318.48901	647.82764	382.20715	-2341.63574	544.72321	362.26355	-2333.99951	533.91284	241.60249	-2332.26831	350.49460	363.35657	-2357.21753	314.17642	359.58917	-2389.17383	377.16473	378.41254	-2403.76782	336.40799	370.54135	-2494.05347	122.30274	326.83731	-2512.43115	154.80258	246.47754	-2458.53564	70.33716	268.89844	-2645.18457	129.33809	354.66492	-2661.97241	179.49417	298.11838	-2659.44580	163.17142	248.61211	-2036.94617	1037.57715	186.12347	-2225.95508	1000.04437	103.98379	-2123.52075	669.32758	70.96396	-2114.60938	608.34460	83.84794	-2047.44800	672.64374	66.58431	-2049.21973	611.87115	80.78306	0.00000	0.00000	0.00000	-2067.75806	517.43414	101.91563	-1943.19653	387.53622	94.52459	-1933.69385	340.63351	102.23884	-2000.49048	367.01590	98.81046	-1983.37122	324.28699	106.60968	-1874.93713	112.72348	158.73260	-1897.86633	123.26309	242.73763	-1806.09070	87.79670	206.19359	-2019.97449	44.08291	232.97849	-2042.35486	64.49703	185.01253	-1990.19568	39.67334	121.65528
2950	11.79600	-2044.09949	1022.39032	294.00284	-2248.03467	994.40015	335.61029	-2233.39526	673.66864	390.66571	-2263.81348	619.33215	381.98596	-2303.12549	704.77332	391.76669	-2324.09058	647.38104	382.12900	-2346.70068	544.22583	362.09045	-2339.59863	533.70386	241.78911	-2336.99170	349.78409	362.90097	-2361.94971	313.69461	359.41650	-2393.84009	376.11685	378.14456	-2408.38232	335.46301	370.20706	-2498.52393	121.14137	326.48709	-2516.33350	153.66809	246.05182	-2462.36572	69.24519	268.38574	-2649.77002	128.53088	353.47745	-2666.04419	178.71883	296.81033	-2663.20093	162.10320	247.59004	-2041.81079	1036.67517	186.45695	-2230.85376	999.04431	104.21207	-2127.44751	668.52258	71.07124	-2118.28979	607.64294	84.04980	-2051.24707	672.13391	66.74131	-2052.98096	611.29462	80.86630	0.00000	0.00000	0.00000	-2071.14331	516.81531	102.22780	-1945.76135	387.65549	94.61180	-1936.03088	340.78876	102.34646	-2002.96179	366.76013	99.01030	-1985.58618	324.18216	106.84346	-1875.44067	113.20586	158.61674	-1898.36206	123.63062	242.65526	-1806.38281	88.53376	206.09254	-2020.02783	44.05326	232.89232	-2042.47498	64.30464	184.98004	-1990.24219	39.62418	121.64565
2951	11.80000	-2049.30127	1021.54303	294.36700	-2253.00537	993.57874	335.90784	-2239.06104	673.19092	390.70886	-2269.09277	618.72382	381.34201	-2308.72363	704.29706	391.78717	-2329.81494	646.98376	381.99341	-2352.32837	543.62976	361.80594	-2345.47461	533.48804	242.03362	-2341.63208	349.29163	362.46347	-2366.27100	312.68652	358.65433	-2398.68335	375.40329	377.77493	-2412.99756	334.55634	369.87381	-2502.34937	119.76761	326.16406	-2519.76440	152.21732	245.56908	-2466.00317	67.72035	268.30081	-2653.68799	127.20065	352.32776	-2669.69189	177.38120	295.63547	-2666.54492	160.62529	246.42563	-2046.97083	1035.84900	186.72478	-2235.88037	998.07666	104.45353	-2131.47095	667.72552	71.27522	-2122.05176	606.92633	84.21207	-2055.33130	671.58466	66.90771	-2056.67725	610.63538	80.82735	0.00000	0.00000	0.00000	-2074.59448	516.19196	102.52099	-1948.45837	387.78125	94.79306	-1938.33459	341.02618	102.51943	-2005.48486	366.50912	99.34563	-1987.81689	324.06635	107.11353	-1875.95215	113.81307	158.48900	-1898.98792	124.02016	242.52960	-1806.75720	89.36800	205.93446	-2020.08557	44.05416	232.76480	-2042.69153	64.16283	184.96812	-1990.31616	39.57676	121.61781
2952	11.80400	-2054.41895	1020.75262	294.65927	-2258.14502	992.87299	336.19287	-2244.78687	672.77307	390.84906	-2275.43262	618.63953	381.86932	-2314.45288	703.99750	391.74088	-2335.62061	646.63483	381.77902	-2357.81152	543.17737	361.48669	-2351.47437	533.32098	241.95782	-2346.33203	348.81238	362.23981	-2370.62158	312.09622	358.47806	-2403.59521	374.51855	377.44632	-2417.55493	333.60767	369.49945	-2505.71704	118.31741	325.90964	-2522.86914	150.54274	245.14120	-2469.10449	66.01235	268.85779	-2657.08154	125.52764	351.45520	-2672.90063	175.34628	294.55566	-2669.55029	158.56685	245.37601	-2052.00928	1034.99414	187.00392	-2240.95312	997.35211	104.94094	-2135.41284	666.94275	71.53856	-2126.43018	606.06488	84.92852	-2059.24829	671.05286	67.02905	-2060.38281	609.96179	80.82017	0.00000	0.00000	0.00000	-2078.13599	515.54535	102.88633	-1951.24658	387.87665	94.99829	-1940.67371	341.25937	102.69741	-2008.06860	366.27859	99.65010	-1989.98230	323.88953	107.49201	-1876.47156	114.43137	158.37378	-1899.65247	124.48887	242.37059	-1807.19495	90.33897	205.79897	-2020.22791	44.05930	232.73627	-2042.89441	63.99399	184.93723	-1990.36523	39.55282	121.60501
2953	11.80800	-2059.41187	1020.04944	294.96487	-2263.43750	992.20807	336.54288	-2250.54468	672.36328	390.65161	-2281.24683	618.32013	381.57660	-2320.30615	703.64978	391.57251	-2341.47534	646.37384	381.53558	-2363.46533	542.82904	361.03699	-2357.55859	533.21130	241.75107	-2351.07397	348.45370	362.03995	-2375.14355	311.66269	358.36185	-2408.47583	373.67352	377.08130	-2422.19800	332.76675	369.14185	-2508.44165	116.80136	325.64465	-2525.76147	148.22781	245.02126	-2471.25879	65.50579	268.65826	-2659.83301	123.34636	350.77020	-2675.76172	172.80421	293.56177	-2672.17529	155.79288	244.47144	-2056.92993	1034.15918	187.34769	-2245.89478	996.06244	104.98296	-2139.42310	666.21466	71.82331	-2130.23486	605.30133	85.14789	-2063.37134	670.43884	67.21861	-2064.23462	609.33771	81.03870	0.00000	0.00000	0.00000	-2081.65601	514.87659	103.22695	-1954.01440	388.08618	95.23634	-1943.10840	341.52505	102.97017	-2010.60144	366.02875	100.03970	-1992.35120	323.83954	107.81998	-1877.06201	115.10958	158.27795	-1900.18494	125.10746	242.26816	-1807.56848	91.30309	205.70312	-2020.35071	44.02898	232.69283	-2043.06409	63.84534	184.88406	-1990.40710	39.54853	121.59042
